<svg xmlns="http://www.w3.org/2000/svg" xmlns:xlink="http://www.w3.org/1999/xlink" width="1800" zoomAndPan="magnify" viewBox="0 0 1350 599.999999" height="800" preserveAspectRatio="xMidYMid meet" version="1.0"><defs><g/><clipPath id="dcb69e29d8"><rect x="0" width="1338" y="0" height="504"/></clipPath></defs><g transform="matrix(1, 0, 0, 1, 12, 47)"><g clip-path="url(#dcb69e29d8)"><g fill="#000000" fill-opacity="1"><g transform="translate(0.530979, 232.455486)"><g><path d="M 46.828125 -81.40625 L 46.828125 -19.9375 L 142.15625 -19.9375 L 142.15625 0 L 21.609375 0 L 21.609375 -177.703125 L 139.515625 -177.703125 L 139.515625 -157.765625 L 46.828125 -157.765625 L 46.828125 -101.578125 L 131.109375 -101.578125 L 131.109375 -81.40625 Z M 46.828125 -81.40625 "/></g></g></g><g fill="#000000" fill-opacity="1"><g transform="translate(147.733755, 232.455486)"><g><path d="M 81.171875 -2.40625 L 130.875 -177.703125 L 156.578125 -177.703125 L 103.015625 0 L 57.390625 0 L 4.078125 -177.703125 L 31.21875 -177.703125 L 80.6875 -2.40625 Z M 81.171875 -2.40625 "/></g></g></g><g fill="#000000" fill-opacity="1"><g transform="translate(303.101134, 232.455486)"><g><path d="M 91.015625 2.40625 C 74.523438 2.40625 60.351562 -1.195312 48.5 -8.40625 C 36.65625 -15.613281 27.609375 -26.019531 21.359375 -39.625 C 15.117188 -53.226562 12 -69.640625 12 -88.859375 C 12 -108.066406 15.117188 -124.472656 21.359375 -138.078125 C 27.609375 -151.691406 36.65625 -162.097656 48.5 -169.296875 C 60.351562 -176.503906 74.523438 -180.109375 91.015625 -180.109375 C 107.503906 -180.109375 121.628906 -176.503906 133.390625 -169.296875 C 145.160156 -162.097656 154.164062 -151.691406 160.40625 -138.078125 C 166.65625 -124.472656 169.78125 -108.066406 169.78125 -88.859375 C 169.78125 -69.640625 166.65625 -53.226562 160.40625 -39.625 C 154.164062 -26.019531 145.160156 -15.613281 133.390625 -8.40625 C 121.628906 -1.195312 107.503906 2.40625 91.015625 2.40625 Z M 91.015625 -18.25 C 107.660156 -18.25 120.625 -24.453125 129.90625 -36.859375 C 139.195312 -49.265625 143.84375 -66.597656 143.84375 -88.859375 C 143.84375 -111.109375 139.195312 -128.4375 129.90625 -140.84375 C 120.625 -153.25 107.660156 -159.453125 91.015625 -159.453125 C 74.203125 -159.453125 61.113281 -153.25 51.75 -140.84375 C 42.382812 -128.4375 37.703125 -111.109375 37.703125 -88.859375 C 37.703125 -66.597656 42.382812 -49.265625 51.75 -36.859375 C 61.113281 -24.453125 74.203125 -18.25 91.015625 -18.25 Z M 91.015625 -18.25 "/></g></g></g><g fill="#000000" fill-opacity="1"><g transform="translate(479.840577, 232.455486)"><g><path d="M 46.828125 -177.703125 L 46.828125 -20.65625 L 127.28125 -20.65625 L 127.28125 0 L 21.609375 0 L 21.609375 -177.703125 Z M 46.828125 -177.703125 "/></g></g></g><g fill="#000000" fill-opacity="1"><g transform="translate(606.63185, 232.455486)"><g><path d="M 86.453125 2.40625 C 65.640625 2.40625 49.347656 -3.273438 37.578125 -14.640625 C 25.816406 -26.015625 19.9375 -41.707031 19.9375 -61.71875 L 19.9375 -177.703125 L 44.90625 -177.703125 L 44.90625 -60.28125 C 44.90625 -47.144531 48.625 -36.851562 56.0625 -29.40625 C 63.507812 -21.96875 73.878906 -18.25 87.171875 -18.25 C 100.460938 -18.25 110.828125 -21.96875 118.265625 -29.40625 C 125.710938 -36.851562 129.4375 -47.144531 129.4375 -60.28125 L 129.4375 -177.703125 L 153.203125 -177.703125 L 153.203125 -61.71875 C 153.203125 -41.707031 147.316406 -26.015625 135.546875 -14.640625 C 123.785156 -3.273438 107.421875 2.40625 86.453125 2.40625 Z M 86.453125 2.40625 "/></g></g></g><g fill="#000000" fill-opacity="1"><g transform="translate(774.726434, 232.455486)"><g><path d="M 4.328125 -177.703125 L 137.125 -177.703125 L 137.125 -157.765625 L 83.328125 -157.765625 L 83.328125 0 L 58.109375 0 L 58.109375 -157.765625 L 4.328125 -157.765625 Z M 4.328125 -177.703125 "/></g></g></g><g fill="#000000" fill-opacity="1"><g transform="translate(911.123084, 232.455486)"><g><path d="M 46.828125 0 L 21.609375 0 L 21.609375 -177.703125 L 46.828125 -177.703125 Z M 46.828125 0 "/></g></g></g><g fill="#000000" fill-opacity="1"><g transform="translate(974.518615, 232.455486)"><g><path d="M 91.015625 2.40625 C 74.523438 2.40625 60.351562 -1.195312 48.5 -8.40625 C 36.65625 -15.613281 27.609375 -26.019531 21.359375 -39.625 C 15.117188 -53.226562 12 -69.640625 12 -88.859375 C 12 -108.066406 15.117188 -124.472656 21.359375 -138.078125 C 27.609375 -151.691406 36.65625 -162.097656 48.5 -169.296875 C 60.351562 -176.503906 74.523438 -180.109375 91.015625 -180.109375 C 107.503906 -180.109375 121.628906 -176.503906 133.390625 -169.296875 C 145.160156 -162.097656 154.164062 -151.691406 160.40625 -138.078125 C 166.65625 -124.472656 169.78125 -108.066406 169.78125 -88.859375 C 169.78125 -69.640625 166.65625 -53.226562 160.40625 -39.625 C 154.164062 -26.019531 145.160156 -15.613281 133.390625 -8.40625 C 121.628906 -1.195312 107.503906 2.40625 91.015625 2.40625 Z M 91.015625 -18.25 C 107.660156 -18.25 120.625 -24.453125 129.90625 -36.859375 C 139.195312 -49.265625 143.84375 -66.597656 143.84375 -88.859375 C 143.84375 -111.109375 139.195312 -128.4375 129.90625 -140.84375 C 120.625 -153.25 107.660156 -159.453125 91.015625 -159.453125 C 74.203125 -159.453125 61.113281 -153.25 51.75 -140.84375 C 42.382812 -128.4375 37.703125 -111.109375 37.703125 -88.859375 C 37.703125 -66.597656 42.382812 -49.265625 51.75 -36.859375 C 61.113281 -24.453125 74.203125 -18.25 91.015625 -18.25 Z M 91.015625 -18.25 "/></g></g></g><g fill="#000000" fill-opacity="1"><g transform="translate(1151.258059, 232.455486)"><g><path d="M 133.765625 -2.40625 L 133.03125 -177.703125 L 156.8125 -177.703125 L 156.8125 0 L 113.828125 0 L 45.390625 -175.296875 L 44.90625 -175.296875 L 45.859375 0 L 21.609375 0 L 21.609375 -177.703125 L 64.84375 -177.703125 L 133.28125 -2.40625 Z M 133.765625 -2.40625 "/></g></g></g><g fill="#000000" fill-opacity="1"><g transform="translate(1324.647151, 232.455486)"><g/></g></g><g fill="#000000" fill-opacity="1"><g transform="translate(0.530979, 447.488201)"><g><path d="M 79.96875 2.40625 C 59.3125 2.40625 42.78125 -3.195312 30.375 -14.40625 C 17.96875 -25.613281 11.046875 -41.300781 9.609375 -61.46875 L 34.578125 -61.46875 C 35.535156 -47.863281 40.054688 -37.257812 48.140625 -29.65625 C 56.234375 -22.050781 67.003906 -18.25 80.453125 -18.25 C 94.378906 -18.25 105.222656 -21.007812 112.984375 -26.53125 C 120.753906 -32.0625 124.640625 -39.785156 124.640625 -49.703125 C 124.640625 -57.867188 122.316406 -63.992188 117.671875 -68.078125 C 113.023438 -72.160156 107.019531 -75.125 99.65625 -76.96875 C 92.289062 -78.8125 84.445312 -80.367188 76.125 -81.640625 C 68.914062 -82.765625 61.671875 -84.125 54.390625 -85.71875 C 47.109375 -87.320312 40.460938 -89.6875 34.453125 -92.8125 C 28.453125 -95.9375 23.648438 -100.378906 20.046875 -106.140625 C 16.453125 -111.898438 14.65625 -119.425781 14.65625 -128.71875 C 14.65625 -145.363281 20.414062 -158.085938 31.9375 -166.890625 C 43.46875 -175.703125 59.476562 -180.109375 79.96875 -180.109375 C 99.175781 -180.109375 114.539062 -174.703125 126.0625 -163.890625 C 137.59375 -153.085938 144 -138.160156 145.28125 -119.109375 L 120.546875 -119.109375 C 119.910156 -131.921875 115.910156 -141.847656 108.546875 -148.890625 C 101.179688 -155.929688 91.332031 -159.453125 79 -159.453125 C 66.832031 -159.453125 57.304688 -156.929688 50.421875 -151.890625 C 43.546875 -146.847656 40.109375 -139.679688 40.109375 -130.390625 C 40.109375 -123.515625 42.226562 -118.273438 46.46875 -114.671875 C 50.707031 -111.066406 56.304688 -108.460938 63.265625 -106.859375 C 70.234375 -105.265625 77.640625 -103.828125 85.484375 -102.546875 C 93.015625 -101.421875 100.617188 -99.976562 108.296875 -98.21875 C 115.984375 -96.457031 122.988281 -93.894531 129.3125 -90.53125 C 135.632812 -87.164062 140.71875 -82.398438 144.5625 -76.234375 C 148.40625 -70.078125 150.328125 -61.957031 150.328125 -51.875 C 150.328125 -34.90625 144.125 -21.613281 131.71875 -12 C 119.3125 -2.394531 102.0625 2.40625 79.96875 2.40625 Z M 79.96875 2.40625 "/></g></g></g><g fill="#000000" fill-opacity="1"><g transform="translate(156.138508, 447.488201)"><g><path d="M 4.328125 -177.703125 L 137.125 -177.703125 L 137.125 -157.765625 L 83.328125 -157.765625 L 83.328125 0 L 58.109375 0 L 58.109375 -157.765625 L 4.328125 -157.765625 Z M 4.328125 -177.703125 "/></g></g></g><g fill="#000000" fill-opacity="1"><g transform="translate(292.535199, 447.488201)"><g><path d="M 164.734375 0 L 137.59375 0 L 123.671875 -44.671875 L 42.265625 -44.671875 L 28.34375 0 L 2.640625 0 L 61.71875 -177.703125 L 106.140625 -177.703125 Z M 82.84375 -175.296875 L 48.515625 -64.84375 L 117.421875 -64.84375 L 83.328125 -175.296875 Z M 82.84375 -175.296875 "/></g></g></g><g fill="#000000" fill-opacity="1"><g transform="translate(454.866514, 447.488201)"><g><path d="M 93.171875 -100.140625 L 96.53125 -100.140625 C 114.78125 -100.140625 128.988281 -95.816406 139.15625 -87.171875 C 149.320312 -78.523438 154.40625 -66.519531 154.40625 -51.15625 C 154.40625 -35.144531 149.082031 -22.613281 138.4375 -13.5625 C 127.789062 -4.519531 112.941406 0 93.890625 0 L 21.609375 0 L 21.609375 -177.703125 L 92.21875 -177.703125 C 107.582031 -177.703125 119.546875 -174.179688 128.109375 -167.140625 C 136.679688 -160.097656 140.96875 -150.171875 140.96875 -137.359375 C 140.96875 -125.835938 136.765625 -116.832031 128.359375 -110.34375 C 119.953125 -103.863281 108.222656 -100.625 93.171875 -100.625 Z M 115.03125 -128.953125 C 115.03125 -137.921875 112.304688 -144.960938 106.859375 -150.078125 C 101.421875 -155.203125 93.816406 -157.765625 84.046875 -157.765625 L 46.828125 -157.765625 L 46.828125 -100.625 L 84.046875 -100.625 C 93.816406 -100.625 101.421875 -103.101562 106.859375 -108.0625 C 112.304688 -113.019531 115.03125 -119.984375 115.03125 -128.953125 Z M 46.828125 -19.9375 L 95.09375 -19.9375 C 105.5 -19.9375 113.660156 -22.695312 119.578125 -28.21875 C 125.503906 -33.738281 128.46875 -41.382812 128.46875 -51.15625 C 128.46875 -60.757812 125.503906 -68.28125 119.578125 -73.71875 C 113.660156 -79.164062 105.5 -81.890625 95.09375 -81.890625 L 46.828125 -81.890625 Z M 46.828125 -19.9375 "/></g></g></g><g fill="#000000" fill-opacity="1"><g transform="translate(614.316194, 447.488201)"><g><path d="M 46.828125 -177.703125 L 46.828125 -20.65625 L 127.28125 -20.65625 L 127.28125 0 L 21.609375 0 L 21.609375 -177.703125 Z M 46.828125 -177.703125 "/></g></g></g><g fill="#000000" fill-opacity="1"><g transform="translate(741.107508, 447.488201)"><g><path d="M 46.828125 -81.40625 L 46.828125 -19.9375 L 142.15625 -19.9375 L 142.15625 0 L 21.609375 0 L 21.609375 -177.703125 L 139.515625 -177.703125 L 139.515625 -157.765625 L 46.828125 -157.765625 L 46.828125 -101.578125 L 131.109375 -101.578125 L 131.109375 -81.40625 Z M 46.828125 -81.40625 "/></g></g></g><g fill="#000000" fill-opacity="1"><g transform="translate(888.310264, 447.488201)"><g><path d="M 79.96875 2.40625 C 59.3125 2.40625 42.78125 -3.195312 30.375 -14.40625 C 17.96875 -25.613281 11.046875 -41.300781 9.609375 -61.46875 L 34.578125 -61.46875 C 35.535156 -47.863281 40.054688 -37.257812 48.140625 -29.65625 C 56.234375 -22.050781 67.003906 -18.25 80.453125 -18.25 C 94.378906 -18.25 105.222656 -21.007812 112.984375 -26.53125 C 120.753906 -32.0625 124.640625 -39.785156 124.640625 -49.703125 C 124.640625 -57.867188 122.316406 -63.992188 117.671875 -68.078125 C 113.023438 -72.160156 107.019531 -75.125 99.65625 -76.96875 C 92.289062 -78.8125 84.445312 -80.367188 76.125 -81.640625 C 68.914062 -82.765625 61.671875 -84.125 54.390625 -85.71875 C 47.109375 -87.320312 40.460938 -89.6875 34.453125 -92.8125 C 28.453125 -95.9375 23.648438 -100.378906 20.046875 -106.140625 C 16.453125 -111.898438 14.65625 -119.425781 14.65625 -128.71875 C 14.65625 -145.363281 20.414062 -158.085938 31.9375 -166.890625 C 43.46875 -175.703125 59.476562 -180.109375 79.96875 -180.109375 C 99.175781 -180.109375 114.539062 -174.703125 126.0625 -163.890625 C 137.59375 -153.085938 144 -138.160156 145.28125 -119.109375 L 120.546875 -119.109375 C 119.910156 -131.921875 115.910156 -141.847656 108.546875 -148.890625 C 101.179688 -155.929688 91.332031 -159.453125 79 -159.453125 C 66.832031 -159.453125 57.304688 -156.929688 50.421875 -151.890625 C 43.546875 -146.847656 40.109375 -139.679688 40.109375 -130.390625 C 40.109375 -123.515625 42.226562 -118.273438 46.46875 -114.671875 C 50.707031 -111.066406 56.304688 -108.460938 63.265625 -106.859375 C 70.234375 -105.265625 77.640625 -103.828125 85.484375 -102.546875 C 93.015625 -101.421875 100.617188 -99.976562 108.296875 -98.21875 C 115.984375 -96.457031 122.988281 -93.894531 129.3125 -90.53125 C 135.632812 -87.164062 140.71875 -82.398438 144.5625 -76.234375 C 148.40625 -70.078125 150.328125 -61.957031 150.328125 -51.875 C 150.328125 -34.90625 144.125 -21.613281 131.71875 -12 C 119.3125 -2.394531 102.0625 2.40625 79.96875 2.40625 Z M 79.96875 2.40625 "/></g></g></g></g></g></svg>