<svg xmlns="http://www.w3.org/2000/svg" xmlns:xlink="http://www.w3.org/1999/xlink" width="1800" zoomAndPan="magnify" viewBox="0 0 1350 149.999998" height="200" preserveAspectRatio="xMidYMid meet" version="1.0"><defs><g/><clipPath id="7d949329e3"><rect x="0" width="1314" y="0" height="150"/></clipPath></defs><g transform="matrix(1, 0, 0, 1, 14, -0.000000000000007527)"><g clip-path="url(#7d949329e3)"><g fill="#000000" fill-opacity="1"><g transform="translate(1.00001, 125.088071)"><g><path d="M 25.40625 -44.171875 L 25.40625 -10.8125 L 77.140625 -10.8125 L 77.140625 0 L 11.734375 0 L 11.734375 -96.4375 L 75.71875 -96.4375 L 75.71875 -85.609375 L 25.40625 -85.609375 L 25.40625 -55.125 L 71.15625 -55.125 L 71.15625 -44.171875 Z M 25.40625 -44.171875 "/></g></g></g><g fill="#000000" fill-opacity="1"><g transform="translate(80.880709, 125.088071)"><g><path d="M 44.046875 -1.296875 L 71.015625 -96.4375 L 84.96875 -96.4375 L 55.90625 0 L 31.140625 0 L 2.21875 -96.4375 L 16.9375 -96.4375 L 43.78125 -1.296875 Z M 44.046875 -1.296875 "/></g></g></g><g fill="#000000" fill-opacity="1"><g transform="translate(165.191991, 125.088071)"><g><path d="M 49.390625 1.296875 C 40.441406 1.296875 32.753906 -0.65625 26.328125 -4.5625 C 19.898438 -8.46875 14.988281 -14.113281 11.59375 -21.5 C 8.207031 -28.882812 6.515625 -37.789062 6.515625 -48.21875 C 6.515625 -58.644531 8.207031 -67.546875 11.59375 -74.921875 C 14.988281 -82.304688 19.898438 -87.953125 26.328125 -91.859375 C 32.753906 -95.773438 40.441406 -97.734375 49.390625 -97.734375 C 58.335938 -97.734375 66.003906 -95.773438 72.390625 -91.859375 C 78.773438 -87.953125 83.660156 -82.304688 87.046875 -74.921875 C 90.429688 -67.546875 92.125 -58.644531 92.125 -48.21875 C 92.125 -37.789062 90.429688 -28.882812 87.046875 -21.5 C 83.660156 -14.113281 78.773438 -8.46875 72.390625 -4.5625 C 66.003906 -0.65625 58.335938 1.296875 49.390625 1.296875 Z M 49.390625 -9.90625 C 58.421875 -9.90625 65.457031 -13.269531 70.5 -20 C 75.539062 -26.738281 78.0625 -36.144531 78.0625 -48.21875 C 78.0625 -60.289062 75.539062 -69.691406 70.5 -76.421875 C 65.457031 -83.160156 58.421875 -86.53125 49.390625 -86.53125 C 40.265625 -86.53125 33.160156 -83.160156 28.078125 -76.421875 C 22.992188 -69.691406 20.453125 -60.289062 20.453125 -48.21875 C 20.453125 -36.144531 22.992188 -26.738281 28.078125 -20 C 33.160156 -13.269531 40.265625 -9.90625 49.390625 -9.90625 Z M 49.390625 -9.90625 "/></g></g></g><g fill="#000000" fill-opacity="1"><g transform="translate(261.100985, 125.088071)"><g><path d="M 25.40625 -96.4375 L 25.40625 -11.203125 L 69.0625 -11.203125 L 69.0625 0 L 11.734375 0 L 11.734375 -96.4375 Z M 25.40625 -96.4375 "/></g></g></g><g fill="#000000" fill-opacity="1"><g transform="translate(329.905228, 125.088071)"><g><path d="M 46.90625 1.296875 C 35.613281 1.296875 26.773438 -1.785156 20.390625 -7.953125 C 14.003906 -14.117188 10.8125 -22.628906 10.8125 -33.484375 L 10.8125 -96.4375 L 24.375 -96.4375 L 24.375 -32.703125 C 24.375 -25.578125 26.390625 -19.992188 30.421875 -15.953125 C 34.460938 -11.921875 40.085938 -9.90625 47.296875 -9.90625 C 54.515625 -9.90625 60.140625 -11.921875 64.171875 -15.953125 C 68.210938 -19.992188 70.234375 -25.578125 70.234375 -32.703125 L 70.234375 -96.4375 L 83.140625 -96.4375 L 83.140625 -33.484375 C 83.140625 -22.628906 79.945312 -14.117188 73.5625 -7.953125 C 67.175781 -1.785156 58.289062 1.296875 46.90625 1.296875 Z M 46.90625 1.296875 "/></g></g></g><g fill="#000000" fill-opacity="1"><g transform="translate(421.123023, 125.088071)"><g><path d="M 2.34375 -96.4375 L 74.40625 -96.4375 L 74.40625 -85.609375 L 45.21875 -85.609375 L 45.21875 0 L 31.53125 0 L 31.53125 -85.609375 L 2.34375 -85.609375 Z M 2.34375 -96.4375 "/></g></g></g><g fill="#000000" fill-opacity="1"><g transform="translate(495.139696, 125.088071)"><g><path d="M 25.40625 0 L 11.734375 0 L 11.734375 -96.4375 L 25.40625 -96.4375 Z M 25.40625 0 "/></g></g></g><g fill="#000000" fill-opacity="1"><g transform="translate(529.54176, 125.088071)"><g><path d="M 49.390625 1.296875 C 40.441406 1.296875 32.753906 -0.65625 26.328125 -4.5625 C 19.898438 -8.46875 14.988281 -14.113281 11.59375 -21.5 C 8.207031 -28.882812 6.515625 -37.789062 6.515625 -48.21875 C 6.515625 -58.644531 8.207031 -67.546875 11.59375 -74.921875 C 14.988281 -82.304688 19.898438 -87.953125 26.328125 -91.859375 C 32.753906 -95.773438 40.441406 -97.734375 49.390625 -97.734375 C 58.335938 -97.734375 66.003906 -95.773438 72.390625 -91.859375 C 78.773438 -87.953125 83.660156 -82.304688 87.046875 -74.921875 C 90.429688 -67.546875 92.125 -58.644531 92.125 -48.21875 C 92.125 -37.789062 90.429688 -28.882812 87.046875 -21.5 C 83.660156 -14.113281 78.773438 -8.46875 72.390625 -4.5625 C 66.003906 -0.65625 58.335938 1.296875 49.390625 1.296875 Z M 49.390625 -9.90625 C 58.421875 -9.90625 65.457031 -13.269531 70.5 -20 C 75.539062 -26.738281 78.0625 -36.144531 78.0625 -48.21875 C 78.0625 -60.289062 75.539062 -69.691406 70.5 -76.421875 C 65.457031 -83.160156 58.421875 -86.53125 49.390625 -86.53125 C 40.265625 -86.53125 33.160156 -83.160156 28.078125 -76.421875 C 22.992188 -69.691406 20.453125 -60.289062 20.453125 -48.21875 C 20.453125 -36.144531 22.992188 -26.738281 28.078125 -20 C 33.160156 -13.269531 40.265625 -9.90625 49.390625 -9.90625 Z M 49.390625 -9.90625 "/></g></g></g><g fill="#000000" fill-opacity="1"><g transform="translate(625.450754, 125.088071)"><g><path d="M 72.578125 -1.296875 L 72.1875 -96.4375 L 85.09375 -96.4375 L 85.09375 0 L 61.765625 0 L 24.625 -95.125 L 24.375 -95.125 L 24.890625 0 L 11.734375 0 L 11.734375 -96.4375 L 35.1875 -96.4375 L 72.328125 -1.296875 Z M 72.578125 -1.296875 "/></g></g></g><g fill="#000000" fill-opacity="1"><g transform="translate(719.535392, 125.088071)"><g/></g></g><g fill="#000000" fill-opacity="1"><g transform="translate(746.774534, 125.088071)"><g><path d="M 43.390625 1.296875 C 32.179688 1.296875 23.210938 -1.738281 16.484375 -7.8125 C 9.753906 -13.894531 6 -22.410156 5.21875 -33.359375 L 18.765625 -33.359375 C 19.285156 -25.972656 21.738281 -20.21875 26.125 -16.09375 C 30.507812 -11.96875 36.351562 -9.90625 43.65625 -9.90625 C 51.207031 -9.90625 57.085938 -11.398438 61.296875 -14.390625 C 65.515625 -17.390625 67.625 -21.582031 67.625 -26.96875 C 67.625 -31.40625 66.363281 -34.726562 63.84375 -36.9375 C 61.332031 -39.15625 58.078125 -40.765625 54.078125 -41.765625 C 50.078125 -42.765625 45.820312 -43.613281 41.3125 -44.3125 C 37.394531 -44.914062 33.460938 -45.648438 29.515625 -46.515625 C 25.566406 -47.390625 21.960938 -48.671875 18.703125 -50.359375 C 15.441406 -52.054688 12.832031 -54.46875 10.875 -57.59375 C 8.925781 -60.726562 7.953125 -64.8125 7.953125 -69.84375 C 7.953125 -78.882812 11.078125 -85.789062 17.328125 -90.5625 C 23.585938 -95.34375 32.273438 -97.734375 43.390625 -97.734375 C 53.816406 -97.734375 62.15625 -94.800781 68.40625 -88.9375 C 74.664062 -83.070312 78.144531 -74.972656 78.84375 -64.640625 L 65.421875 -64.640625 C 65.066406 -71.585938 62.890625 -76.972656 58.890625 -80.796875 C 54.898438 -84.617188 49.5625 -86.53125 42.875 -86.53125 C 36.269531 -86.53125 31.097656 -85.160156 27.359375 -82.421875 C 23.628906 -79.679688 21.765625 -75.796875 21.765625 -70.765625 C 21.765625 -67.023438 22.914062 -64.175781 25.21875 -62.21875 C 27.519531 -60.269531 30.554688 -58.859375 34.328125 -57.984375 C 38.109375 -57.117188 42.128906 -56.335938 46.390625 -55.640625 C 50.472656 -55.035156 54.597656 -54.253906 58.765625 -53.296875 C 62.941406 -52.335938 66.742188 -50.945312 70.171875 -49.125 C 73.609375 -47.300781 76.367188 -44.71875 78.453125 -41.375 C 80.535156 -38.03125 81.578125 -33.617188 81.578125 -28.140625 C 81.578125 -18.929688 78.207031 -11.722656 71.46875 -6.515625 C 64.738281 -1.304688 55.378906 1.296875 43.390625 1.296875 Z M 43.390625 1.296875 "/></g></g></g><g fill="#000000" fill-opacity="1"><g transform="translate(831.216135, 125.088071)"><g><path d="M 2.34375 -96.4375 L 74.40625 -96.4375 L 74.40625 -85.609375 L 45.21875 -85.609375 L 45.21875 0 L 31.53125 0 L 31.53125 -85.609375 L 2.34375 -85.609375 Z M 2.34375 -96.4375 "/></g></g></g><g fill="#000000" fill-opacity="1"><g transform="translate(905.23283, 125.088071)"><g><path d="M 89.390625 0 L 74.671875 0 L 67.109375 -24.234375 L 22.9375 -24.234375 L 15.375 0 L 1.4375 0 L 33.484375 -96.4375 L 57.59375 -96.4375 Z M 44.953125 -95.125 L 26.328125 -35.1875 L 63.71875 -35.1875 L 45.21875 -95.125 Z M 44.953125 -95.125 "/></g></g></g><g fill="#000000" fill-opacity="1"><g transform="translate(993.323144, 125.088071)"><g><path d="M 50.5625 -54.34375 L 52.390625 -54.34375 C 62.285156 -54.34375 69.992188 -51.992188 75.515625 -47.296875 C 81.035156 -42.609375 83.796875 -36.09375 83.796875 -27.75 C 83.796875 -19.0625 80.90625 -12.265625 75.125 -7.359375 C 69.34375 -2.453125 61.285156 0 50.953125 0 L 11.734375 0 L 11.734375 -96.4375 L 50.046875 -96.4375 C 58.378906 -96.4375 64.867188 -94.523438 69.515625 -90.703125 C 74.171875 -86.878906 76.5 -81.488281 76.5 -74.53125 C 76.5 -68.28125 74.21875 -63.394531 69.65625 -59.875 C 65.09375 -56.351562 58.726562 -54.59375 50.5625 -54.59375 Z M 62.421875 -69.984375 C 62.421875 -74.847656 60.941406 -78.664062 57.984375 -81.4375 C 55.035156 -84.21875 50.910156 -85.609375 45.609375 -85.609375 L 25.40625 -85.609375 L 25.40625 -54.59375 L 45.609375 -54.59375 C 50.910156 -54.59375 55.035156 -55.941406 57.984375 -58.640625 C 60.941406 -61.335938 62.421875 -65.117188 62.421875 -69.984375 Z M 25.40625 -10.8125 L 51.609375 -10.8125 C 57.253906 -10.8125 61.679688 -12.3125 64.890625 -15.3125 C 68.109375 -18.3125 69.71875 -22.457031 69.71875 -27.75 C 69.71875 -32.96875 68.109375 -37.050781 64.890625 -40 C 61.679688 -42.957031 57.253906 -44.4375 51.609375 -44.4375 L 25.40625 -44.4375 Z M 25.40625 -10.8125 "/></g></g></g><g fill="#000000" fill-opacity="1"><g transform="translate(1079.849718, 125.088071)"><g><path d="M 25.40625 -96.4375 L 25.40625 -11.203125 L 69.0625 -11.203125 L 69.0625 0 L 11.734375 0 L 11.734375 -96.4375 Z M 25.40625 -96.4375 "/></g></g></g><g fill="#000000" fill-opacity="1"><g transform="translate(1148.653983, 125.088071)"><g><path d="M 25.40625 -44.171875 L 25.40625 -10.8125 L 77.140625 -10.8125 L 77.140625 0 L 11.734375 0 L 11.734375 -96.4375 L 75.71875 -96.4375 L 75.71875 -85.609375 L 25.40625 -85.609375 L 25.40625 -55.125 L 71.15625 -55.125 L 71.15625 -44.171875 Z M 25.40625 -44.171875 "/></g></g></g><g fill="#000000" fill-opacity="1"><g transform="translate(1228.53467, 125.088071)"><g><path d="M 43.390625 1.296875 C 32.179688 1.296875 23.210938 -1.738281 16.484375 -7.8125 C 9.753906 -13.894531 6 -22.410156 5.21875 -33.359375 L 18.765625 -33.359375 C 19.285156 -25.972656 21.738281 -20.21875 26.125 -16.09375 C 30.507812 -11.96875 36.351562 -9.90625 43.65625 -9.90625 C 51.207031 -9.90625 57.085938 -11.398438 61.296875 -14.390625 C 65.515625 -17.390625 67.625 -21.582031 67.625 -26.96875 C 67.625 -31.40625 66.363281 -34.726562 63.84375 -36.9375 C 61.332031 -39.15625 58.078125 -40.765625 54.078125 -41.765625 C 50.078125 -42.765625 45.820312 -43.613281 41.3125 -44.3125 C 37.394531 -44.914062 33.460938 -45.648438 29.515625 -46.515625 C 25.566406 -47.390625 21.960938 -48.671875 18.703125 -50.359375 C 15.441406 -52.054688 12.832031 -54.46875 10.875 -57.59375 C 8.925781 -60.726562 7.953125 -64.8125 7.953125 -69.84375 C 7.953125 -78.882812 11.078125 -85.789062 17.328125 -90.5625 C 23.585938 -95.34375 32.273438 -97.734375 43.390625 -97.734375 C 53.816406 -97.734375 62.15625 -94.800781 68.40625 -88.9375 C 74.664062 -83.070312 78.144531 -74.972656 78.84375 -64.640625 L 65.421875 -64.640625 C 65.066406 -71.585938 62.890625 -76.972656 58.890625 -80.796875 C 54.898438 -84.617188 49.5625 -86.53125 42.875 -86.53125 C 36.269531 -86.53125 31.097656 -85.160156 27.359375 -82.421875 C 23.628906 -79.679688 21.765625 -75.796875 21.765625 -70.765625 C 21.765625 -67.023438 22.914062 -64.175781 25.21875 -62.21875 C 27.519531 -60.269531 30.554688 -58.859375 34.328125 -57.984375 C 38.109375 -57.117188 42.128906 -56.335938 46.390625 -55.640625 C 50.472656 -55.035156 54.597656 -54.253906 58.765625 -53.296875 C 62.941406 -52.335938 66.742188 -50.945312 70.171875 -49.125 C 73.609375 -47.300781 76.367188 -44.71875 78.453125 -41.375 C 80.535156 -38.03125 81.578125 -33.617188 81.578125 -28.140625 C 81.578125 -18.929688 78.207031 -11.722656 71.46875 -6.515625 C 64.738281 -1.304688 55.378906 1.296875 43.390625 1.296875 Z M 43.390625 1.296875 "/></g></g></g></g></g></svg>